<svg viewBox="0 0 278 329" fill-rule="evenodd" clip-rule="evenodd" stroke-linejoin="round" stroke-miterlimit="2" class="svg gitea-gitea" width="16" height="16" aria-hidden="true"><path d="M.075 121.825l277.106-70.018H.075v70.018zm225.549 206.254L.075 228.602h277.107l-51.558 99.477zM138.591 0L0 42.115h138.555L138.591 0z" fill="#f9c013" fill-rule="nonzero"/><path d="M101.802 201.639c3.979 0 6.858-1.421 8.637-4.26 1.778-2.841 2.668-7.271 2.668-13.297v-25.3c0-6.024-.89-10.498-2.668-13.424-1.779-2.927-4.658-4.389-8.637-4.389-4.065 0-6.966 1.506-8.701 4.518-1.737 3.011-2.605 7.444-2.605 13.295v25.3c0 5.853.868 10.242 2.605 13.168 1.735 2.927 4.636 4.389 8.701 4.389m144.134 0c3.978 0 6.859-1.421 8.636-4.26 1.779-2.841 2.667-7.271 2.667-13.297v-25.3c0-6.024-.888-10.498-2.667-13.424-1.777-2.927-4.658-4.389-8.636-4.389-4.066 0-6.965 1.506-8.702 4.518-1.736 3.011-2.604 7.444-2.604 13.295v25.3c0 5.853.868 10.242 2.604 13.168 1.737 2.927 4.636 4.389 8.702 4.389M59.903 217.646H.075v-15.49c0-2.839.296-5.466.889-7.875s1.482-4.56 2.668-6.454c2.371-3.874 5.356-7.121 8.954-9.748 3.6-2.624 7.22-4.967 10.861-7.034 1.524-.86 3.006-1.719 4.446-2.582a83.968 83.968 0 004.064-2.581c2.625-1.721 4.742-3.572 6.352-5.551 1.608-1.978 2.413-4.303 2.413-6.971v-3.485c0-3.184-.825-5.55-2.477-7.1-1.651-1.548-4.171-2.323-7.557-2.323-3.642 0-6.31.946-8.003 2.839-1.694 1.894-2.54 4.476-2.54 7.746v8.907H.583v-9.811c0-8.518 2.54-15.06 7.621-19.622 5.081-4.56 12.576-6.841 22.484-6.841 9.822 0 17.189 2.216 22.101 6.648 4.911 4.432 7.367 10.607 7.367 18.524v4.001c0 2.841-.296 5.422-.889 7.746-.593 2.322-1.44 4.433-2.54 6.326a32.903 32.903 0 01-8.638 9.359 101.514 101.514 0 01-10.543 6.777 67 67 0 00-3.874 2.388 442.94 442.94 0 01-3.62 2.388c-2.286 1.548-4.128 3.227-5.525 5.035-1.398 1.805-2.138 3.916-2.223 6.326v.258h37.599v18.2zm41.899 1.679c-9.739 0-17.381-2.797-22.928-8.392-5.547-5.593-8.32-14.243-8.32-25.946v-26.98c0-11.531 2.837-20.159 8.511-25.882 5.674-5.722 13.252-8.584 22.737-8.584 9.314 0 16.851 2.84 22.609 8.52 5.759 5.68 8.638 14.286 8.638 25.816v27.11c0 11.703-2.879 20.353-8.638 25.946-5.758 5.595-13.295 8.392-22.609 8.392m144.134 0c-9.739 0-17.382-2.797-22.928-8.392-5.547-5.593-8.319-14.243-8.319-25.946v-26.98c0-11.531 2.837-20.159 8.51-25.882 5.672-5.722 13.251-8.584 22.737-8.584 9.315 0 16.85 2.84 22.61 8.52 5.757 5.68 8.636 14.286 8.636 25.816v27.11c0 11.703-2.879 20.353-8.636 25.946-5.76 5.595-13.295 8.392-22.61 8.392m-72.005 0c-10.502 0-18.207-2.369-23.118-7.101-4.914-4.732-7.369-11.532-7.369-20.396v-6.067h20.451v5.551c0 3.27.804 5.809 2.412 7.617 1.61 1.806 4.235 2.71 7.878 2.71 3.64 0 6.306-1.033 8-3.097 1.695-2.066 2.541-4.949 2.541-8.65v-9.94c0-3.529-.846-6.173-2.541-7.938-1.694-1.764-4.276-2.647-7.746-2.647-2.795 0-5.062.667-6.796 2.001-1.737 1.334-3.156 2.992-4.256 4.97-.085 0-.212.236-.381.71-.169.473-.296.752-.382.84l-18.419-4.776 5.845-48.022h51.824v.517c0 2.495-.105 4.646-.318 6.454-.21 1.807-.57 3.312-1.079 4.517-.848 2.325-2.624 3.851-5.334 4.584-2.71.732-6.818 1.096-12.322 1.096H165.42c-.425 3.358-.869 6.95-1.335 10.778-.465 3.832-.867 7.123-1.206 9.875 1.694-2.666 3.959-4.881 6.796-6.646 2.837-1.764 6.711-2.647 11.623-2.647 7.704 0 13.422 2.389 17.147 7.166 3.725 4.775 5.589 11.122 5.589 19.039v11.36c0 8.777-2.478 15.663-7.431 20.654-4.953 4.99-12.512 7.488-22.672 7.488" fill="#21351e" fill-rule="nonzero"/></svg>